# xmcd
#
# Track frame offsets: 
#        150
#        17466
#        31063
#        48418
#        59457
#        79437
#        92744
#        110986
#        125202
#        136671
#        147938
#        168645
#
# Disc length: 2405 seconds
#
# Revision: 4
# Processed by: cddbd v1.5.2PL0 Copyright (c) Steve Scherf et al.
# Submitted via: ExactAudioCopyFreeDBPlugin 1.0
#
DISCID=a909630c
DTITLE=Blue Ridge Rangers, the - 2009 - Rides Again
DYEAR=2009
DGENRE=Country
TTITLE0=Paradise
TTITLE1=Never Ending Song Of Love
TTITLE2=Garden Party (w Don Henley and Timothy B. Schmit)
TTITLE3=I Don't Care (Just As Long As You Love Me)
TTITLE4=Back Home Again
TTITLE5=I'll Be There
TTITLE6=Change In The Weather
TTITLE7=Moody River
TTITLE8=Heaven's Just A Sin Away
TTITLE9=Fallin' Fallin' Fallin'
TTITLE10=Haunted House
TTITLE11=When Will I Be Loved (w Bruce Springsteen)
EXTD=YEAR: 2009
EXTT0=
EXTT1=
EXTT2=
EXTT3=
EXTT4=
EXTT5=
EXTT6=
EXTT7=
EXTT8=
EXTT9=
EXTT10=
EXTT11=
PLAYORDER=
